HIERARCHY
ROOT Hips
{
	OFFSET 0.000000 0.000000 0.000000
	CHANNELS 6 Xposition Yposition Zposition Zrotation Yrotation Xrotation 
	JOINT LHipJoint
	{
		OFFSET 0.000000 0.000000 0.000000
		CHANNELS 3 Zrotation Yrotation Xrotation
		JOINT LeftUpLeg
		{
			OFFSET 1.363060 -1.794630 0.839290
			CHANNELS 3 Zrotation Yrotation Xrotation
			JOINT LeftLeg
			{
				OFFSET 2.448110 -6.726130 0.000000
				CHANNELS 3 Zrotation Yrotation Xrotation
				JOINT LeftFoot
				{
					OFFSET 2.562200 -7.039590 0.000000
					CHANNELS 3 Zrotation Yrotation Xrotation
					JOINT LeftToeBase
					{
						OFFSET 0.157640 -0.433110 2.322550
						CHANNELS 3 Zrotation Yrotation Xrotation
						End Site
						{
							OFFSET 0.000000 0.000000 0.000000
						}
					}
				}
			}
		}
	}
	JOINT RHipJoint
	{
		OFFSET 0.000000 0.000000 0.000000
		CHANNELS 3 Zrotation Yrotation Xrotation
		JOINT RightUpLeg
		{
			OFFSET -1.305520 -1.794630 0.839290
			CHANNELS 3 Zrotation Yrotation Xrotation
			JOINT RightLeg
			{
				OFFSET -2.542530 -6.985550 0.000000
				CHANNELS 3 Zrotation Yrotation Xrotation
				JOINT RightFoot
				{
					OFFSET -2.568260 -7.056230 0.000000
					CHANNELS 3 Zrotation Yrotation Xrotation
					JOINT RightToeBase
					{
						OFFSET -0.164730 -0.452590 2.363150
						CHANNELS 3 Zrotation Yrotation Xrotation
						End Site
						{
							OFFSET 0.000000 0.000000 0.000000
						}
					}
				}
			}
		}
	}
	JOINT LowerBack
	{
		OFFSET 0.000000 0.000000 0.000000
		CHANNELS 3 Zrotation Yrotation Xrotation
		JOINT Spine
		{
			OFFSET 0.028270 2.035590 -0.193380
			CHANNELS 3 Zrotation Yrotation Xrotation
			JOINT Spine1
			{
				OFFSET 0.056720 2.048850 -0.042750
				CHANNELS 3 Zrotation Yrotation Xrotation
				JOINT Neck
				{
					OFFSET 0.000000 0.000000 0.000000
					CHANNELS 3 Zrotation Yrotation Xrotation
					JOINT Neck1
					{
						OFFSET -0.054170 1.746240 0.172020
						CHANNELS 3 Zrotation Yrotation Xrotation
						JOINT Head
						{
							OFFSET 0.104070 1.761360 -0.123970
							CHANNELS 3 Zrotation Yrotation Xrotation
							End Site
							{
								OFFSET 0.000000 0.000000 0.000000
							}
						}
					}
				}
				JOINT LeftShoulder
				{
					OFFSET 0.000000 0.000000 0.000000
					CHANNELS 3 Zrotation Yrotation Xrotation
					JOINT LeftArm
					{
						OFFSET 3.362410 1.200890 -0.311210
						CHANNELS 3 Zrotation Yrotation Xrotation
						JOINT LeftForeArm
						{
							OFFSET 4.983000 -0.000000 -0.000000
							CHANNELS 3 Zrotation Yrotation Xrotation
							JOINT LeftHand
							{
								OFFSET 3.483560 -0.000000 -0.000000
								CHANNELS 3 Zrotation Yrotation Xrotation
								JOINT LeftFingerBase
								{
									OFFSET 0.000000 0.000000 0.000000
									CHANNELS 3 Zrotation Yrotation Xrotation
									JOINT LeftHandIndex1
									{
										OFFSET 0.715260 -0.000000 -0.000000
										CHANNELS 3 Zrotation Yrotation Xrotation
										End Site
										{
											OFFSET 0.000000 0.000000 0.000000
										}
									}
								}
								JOINT LThumb
								{
									OFFSET 0.000000 0.000000 0.000000
									CHANNELS 3 Zrotation Yrotation Xrotation
									End Site
									{
										OFFSET 0.000000 0.000000 0.000000
									}
								}
							}
						}
					}
				}
				JOINT RightShoulder
				{
					OFFSET 0.000000 0.000000 0.000000
					CHANNELS 3 Zrotation Yrotation Xrotation
					JOINT RightArm
					{
						OFFSET -3.136600 1.374050 -0.404650
						CHANNELS 3 Zrotation Yrotation Xrotation
						JOINT RightForeArm
						{
							OFFSET -5.241900 -0.000000 -0.000000
							CHANNELS 3 Zrotation Yrotation Xrotation
							JOINT RightHand
							{
								OFFSET -3.444170 -0.000000 -0.000000
								CHANNELS 3 Zrotation Yrotation Xrotation
								JOINT RightFingerBase
								{
									OFFSET 0.000000 0.000000 0.000000
									CHANNELS 3 Zrotation Yrotation Xrotation
									JOINT RightHandIndex1
									{
										OFFSET -0.622530 -0.000000 -0.000000
										CHANNELS 3 Zrotation Yrotation Xrotation
										End Site
										{
											OFFSET 0.000000 0.000000 0.000000
										}
									}
								}
								JOINT RThumb
								{
									OFFSET 0.000000 0.000000 0.000000
									CHANNELS 3 Zrotation Yrotation Xrotation
									End Site
									{
										OFFSET 0.000000 0.000000 0.000000
									}
								}
							}
						}
					}
				}
			}
		}
	}
}
MOTION
Frames: 9
Frame Time: 0.008333
3.602867 16.971233 -0.209873 -176.425355 -86.504665 -174.189657 -10.452285 0.321367 1.761074 -7.462399 0.145145 -38.489156 -0.537094 2.171663 47.167202 3.560977 18.736255 -14.470230 -1.901900 0.000000 -1.617500 7.749969 -1.691572 1.810183 15.837544 4.970805 -5.158132 2.701200 0.411395 15.973680 -2.748028 -6.834735 -21.564601 2.079000 0.000000 -5.656099 -1.335032 -0.337431 -4.273414 -1.137112 -0.407128 -4.258571 -6.371872 -0.561917 -1.767021 7.596405 -0.442500 -4.156117 -4.131446 -0.354533 0.940920 0.000000 0.000000 0.000000 -4.424213 2.309360 3.796009 -65.987807 10.427912 -21.576228 -3.061633 -5.146914 -0.039276 20.763513 11.760211 2.133494 0.033753 0.131860 0.000000 0.000000 0.000000 0.000000 0.000000 0.000000 0.000000 14.793419 5.312816 -0.135356 74.756567 30.924882 37.153928 1.333768 44.357324 -0.008137 -5.057154 11.477955 -0.530772 0.086971 -0.322568 0.000000 0.000000 0.000000 0.000000 0.000000 0.000000 0.000000 
3.354024 17.021060 -0.263929 163.078310 -87.277982 -153.710310 -10.309681 -0.115747 1.879135 -8.652980 -0.422691 -37.879075 -0.674797 1.592700 42.211609 3.594074 18.665978 -13.564228 -1.556300 -0.000001 -2.546500 7.885319 -2.086599 1.796535 14.800478 4.283675 -3.058556 2.687675 0.510086 12.975471 -2.584414 -6.722084 -20.223995 1.782899 -0.000000 -6.441600 -2.838488 -0.427822 -4.394724 -1.362850 -0.365365 -4.279231 -6.195484 -0.526111 -1.785935 7.300464 -0.657976 -4.122834 -3.905672 -0.340737 0.954448 0.000000 0.000000 0.000000 -4.717060 2.629143 3.833551 -65.695392 13.324048 -19.725616 -3.477820 -5.583879 -0.040557 18.035545 14.281574 2.256772 -0.004557 0.129997 0.000000 0.000000 0.000000 0.000000 0.000000 0.000000 0.000000 13.602513 5.279789 -0.292569 74.756490 33.233593 39.243156 1.243339 47.069770 -0.010119 -5.296172 11.287140 -0.547937 0.093058 -0.340569 -0.000000 0.000000 0.000000 0.000000 0.000000 0.000000 0.000000 
3.104781 17.064460 -0.313764 152.009386 -87.448913 -142.725447 -9.819876 -0.233806 1.944303 -9.667264 -0.543461 -37.137848 -0.873538 1.084276 37.027639 3.545617 18.282280 -12.325506 -1.075200 -0.000000 -4.110400 8.416026 -2.318445 1.773953 13.922407 3.491818 -0.953245 2.624585 0.627107 10.164142 -2.351586 -6.346160 -18.663620 1.443700 -0.000000 -7.597200 -3.773356 -0.318842 -4.444219 -1.508841 -0.176228 -4.288718 -6.038442 -0.334299 -1.786081 6.972155 -0.830669 -4.119367 -3.680273 -0.326126 0.958824 0.000000 0.000000 0.000000 -5.007433 3.171357 3.829012 -65.203075 15.768939 -17.629566 -3.892448 -5.481221 -0.042046 14.922381 16.011168 2.098728 -0.041544 0.121528 0.000000 0.000000 0.000000 0.000000 0.000000 0.000000 0.000000 12.366511 5.343444 -0.411441 74.447063 35.619422 40.960886 1.178878 49.796499 -0.011346 -5.320059 10.993698 -0.537518 0.097367 -0.356535 -0.000000 0.000000 0.000000 0.000000 0.000000 0.000000 0.000000 
2.855176 17.100539 -0.357407 147.280849 -87.171939 -138.143539 -9.393922 -0.183946 2.000330 -10.629985 -0.250030 -36.327573 -1.145445 0.651010 31.680569 3.408542 17.621398 -10.786558 -0.499200 0.000000 -6.248800 8.899888 -2.476036 1.700437 13.052098 2.584404 1.134642 2.550501 0.748653 7.601948 -2.057964 -5.659292 -16.934626 1.081800 -0.000000 -9.229900 -4.596236 -0.075247 -4.453275 -1.647298 0.137509 -4.295350 -5.869438 -0.015902 -1.775161 6.595000 -0.930873 -4.134728 -3.455116 -0.310911 0.957722 0.000000 0.000000 0.000000 -5.321052 3.899651 3.782029 -64.509500 17.778316 -15.077328 -4.308876 -4.848297 -0.043107 11.512912 16.884731 1.713266 -0.076178 0.106600 0.000000 0.000000 0.000000 0.000000 0.000000 0.000000 0.000000 11.069787 5.507162 -0.490495 73.795771 38.057008 42.259315 1.128818 52.515148 -0.011887 -5.138700 10.662299 -0.505017 0.098598 -0.371188 -0.000000 0.000000 0.000000 0.000000 0.000000 0.000000 0.000000 
2.605351 17.128728 -0.393510 146.188709 -86.689627 -137.252169 -9.107919 -0.096862 2.035440 -11.546506 0.419297 -35.495826 -1.464708 0.247202 26.316522 3.178054 16.683453 -9.001901 0.113500 -0.000000 -8.912600 9.271083 -2.640237 1.583599 12.185216 1.526789 3.141521 2.498112 0.842115 5.312042 -1.707754 -4.653132 -15.065520 0.722300 -0.000000 -11.520000 -5.337423 0.231587 -4.421294 -1.770998 0.507865 -4.295285 -5.676643 0.359789 -1.748433 6.158029 -0.950457 -4.172949 -3.230915 -0.295100 0.950017 0.000000 0.000000 0.000000 -5.683272 4.802419 3.699022 -63.651935 19.356380 -11.977905 -4.708055 -3.790197 -0.042943 7.979801 16.841439 1.191295 -0.106227 0.085848 -0.000000 0.000000 0.000000 0.000000 0.000000 0.000000 0.000000 9.701517 5.735326 -0.539628 72.769915 40.535963 43.117933 1.081229 55.205187 -0.011898 -4.798332 10.344800 -0.458738 0.096090 -0.384686 -0.000000 0.000000 0.000000 0.000000 0.000000 0.000000 0.000000 
2.355099 17.148838 -0.421019 147.408950 -86.098599 -138.709375 -8.966978 -0.021131 2.038053 -12.400126 1.474798 -34.747236 -1.816280 -0.137399 21.115802 2.857724 15.449175 -7.073708 0.688000 -0.000000 -11.970100 9.523716 -2.830369 1.446187 11.351696 0.366875 5.017498 2.479568 0.899821 3.324433 -1.316346 -3.358921 -13.087633 0.401100 0.000000 -14.527900 -5.945948 0.584793 -4.364694 -1.865066 0.913150 -4.292907 -5.456988 0.770206 -1.717183 5.645715 -0.870380 -4.223116 -3.008077 -0.278915 0.939435 0.000000 0.000000 0.000000 -6.138176 5.818005 3.579079 -62.669942 20.521885 -8.124266 -5.072926 -2.255480 -0.040874 4.476096 15.796598 0.635623 -0.130330 0.059754 -0.000000 0.000000 0.000000 0.000000 0.000000 0.000000 0.000000 8.238923 6.024804 -0.563751 71.351016 43.004614 43.491209 1.027071 57.845481 -0.011600 -4.351045 10.071795 -0.405880 0.089625 -0.397553 -0.000000 0.000000 0.000000 0.000000 0.000000 0.000000 0.000000 
2.104052 17.161078 -0.439715 150.089821 -85.425495 -141.644900 -8.952890 0.028399 1.998364 -13.204547 2.916366 -34.187863 -2.189511 -0.496875 16.258641 2.460038 13.893008 -5.123951 1.148700 -0.000000 -15.327700 9.667959 -3.041597 1.306641 10.559509 -0.839112 6.725727 2.495879 0.922773 1.674687 -0.901879 -1.812349 -11.045328 0.152800 -0.000000 -18.188500 -6.392523 0.977160 -4.295382 -1.921376 1.343488 -4.288659 -5.208610 1.205123 -1.679997 5.054700 -0.696838 -4.292610 -2.786892 -0.262315 0.924383 0.000000 0.000000 0.000000 -6.709296 6.954045 3.423258 -61.657162 21.312240 -3.619333 -5.364338 -0.353266 -0.036606 1.302495 13.759892 0.173362 -0.146769 0.029746 -0.000000 0.000000 0.000000 0.000000 0.000000 0.000000 0.000000 6.677368 6.360485 -0.574408 69.543847 45.434408 43.376705 0.960592 60.405151 -0.011304 -3.867348 9.857003 -0.353640 0.079763 -0.410301 -0.000000 0.000000 0.000000 0.000000 0.000000 0.000000 0.000000 
1.852034 17.165944 -0.450267 153.549435 -84.658405 -145.353604 -9.030209 0.051178 1.907709 -13.997193 4.698600 -33.902106 -2.574927 -0.819915 11.894904 2.007950 12.007615 -3.284538 1.433000 0.000000 -18.889800 9.724062 -3.254371 1.167455 9.789641 -2.049586 8.235484 2.540169 0.913360 0.394804 -0.481396 -0.049601 -8.968315 0.004100 0.000000 -22.603800 -6.673461 1.374389 -4.201671 -1.942518 1.762570 -4.291854 -4.960989 1.626527 -1.685278 4.425140 -0.450898 -4.400129 -2.559005 -0.244612 0.901262 0.000000 0.000000 0.000000 -7.481663 8.151703 3.260341 -60.633848 23.527274 1.526333 -5.537748 -2.015339 -0.035013 -1.205622 12.537104 -0.116371 -0.155714 -0.004682 -0.000000 0.000000 0.000000 0.000000 0.000000 0.000000 0.000000 5.064821 6.782097 -0.559458 67.402398 47.800502 42.820222 0.891882 62.859539 -0.011062 -3.415255 9.696018 -0.307498 0.068886 -0.423261 -0.000000 0.000000 0.000000 0.000000 0.000000 0.000000 0.000000 
1.598712 17.164246 -0.453643 157.330555 -83.809662 -149.354583 -9.152935 0.051277 1.781537 -14.795338 6.708567 -33.947277 -2.959183 -1.102987 8.126212 1.532591 9.827609 -1.682403 1.510499 0.000000 -22.525800 9.718727 -3.457354 1.049445 9.049744 -3.180384 9.521014 2.602145 0.877538 -0.498479 -0.081152 1.842449 -6.941757 -0.026500 0.000000 -27.350100 -6.791304 1.789716 -4.113798 -1.933337 2.184467 -4.304049 -4.723476 2.048608 -1.723915 3.764635 -0.143266 -4.526528 -2.326659 -0.226222 0.874857 0.000000 0.000000 0.000000 -8.403133 9.444010 3.050406 -59.283800 26.358176 6.769319 -5.560665 -5.323760 -0.034352 -2.831028 11.537784 -0.272287 -0.155849 -0.041979 -0.000000 0.000000 0.000000 0.000000 0.000000 0.000000 0.000000 3.410938 7.232417 -0.544821 64.958231 50.039908 41.820006 0.811780 65.181360 -0.011374 -3.041393 9.572373 -0.270363 0.056625 -0.436802 -0.000000 0.000000 0.000000 0.000000 0.000000 0.000000 0.000000 
